<?xml version="1.0" standalone="no"?>
<!DOCTYPE svg PUBLIC "-//W3C//DTD SVG 20010904//EN"
 "http://www.w3.org/TR/2001/REC-SVG-20010904/DTD/svg10.dtd">
<svg version="1.0" xmlns="http://www.w3.org/2000/svg"
 width="71.000000pt" height="100.000000pt" viewBox="0 0 71.000000 100.000000"
 preserveAspectRatio="xMidYMid meet">
<metadata>
Created by potrace 1.10, written by Peter Selinger 2001-2011
</metadata>
<g transform="translate(0.000000,100.000000) scale(0.100000,-0.100000)"
fill="#000000" stroke="none">
<path d="M137 932 c-20 -21 -37 -42 -37 -48 0 -5 79 -88 175 -184 l175 -175
-175 -175 c-96 -96 -175 -180 -175 -186 0 -13 72 -84 86 -84 12 0 444 432 444
445 0 13 -432 445 -446 445 -5 0 -27 -17 -47 -38z m265 -189 c115 -114 208
-212 208 -218 0 -14 -412 -425 -426 -425 -13 0 -64 52 -64 66 0 5 76 86 170
179 94 93 170 174 170 180 0 6 -76 87 -170 180 -93 93 -170 174 -170 179 0 14
51 66 64 66 6 0 104 -93 218 -207z"/>
</g>
</svg>
